<?xml version="1.0" encoding="UTF-8"?><svg id="Layer_1" xmlns="http://www.w3.org/2000/svg" viewBox="0 0 764.86 540.22"><defs><style>.cls-1{fill:#92c7d3;}.cls-2{fill:#4d4d4d;}</style></defs><path class="cls-1" d="M696.27,407.87h-47.12c.82-8.7,1.37-10.62,1.38-15.72.14-45.49-31.33-85.92-77.38-95.71-26.25-5.58-51.3-1.79-72.03,9-25.29-36.32-67.2-60.99-115.22-63.82-6.17-.81-12.43-1.39-18.84-1.39-78.28,0-141.75,63.14-141.75,141.03,0,40.59,17.33,77.07,44.91,102.8,24.39,26.11,58.25,42.97,98.35,45.77,0,0,326.45,1.56,327.7,1.56,32.83,0,59.44-27.65,59.44-61.76s-26.61-61.76-59.44-61.76Z"/><path class="cls-2" d="M696.27,540.22c-1.25,0-314.41-1.49-327.74-1.56-41.93-2.92-78.06-19.75-105.1-48.69-30.32-28.25-47.27-67.02-47.27-108.7,0-82.63,67.69-149.85,150.89-149.85,6.14,0,12.52.47,20.09,1.47,45.73,2.67,89.09,25.45,116.93,61.33,21.86-9.44,46.25-11.66,71.06-6.39,49.15,10.46,84.71,54.34,84.56,104.36,0,2.69-.15,4.59-.38,6.87h36.96c37.82,0,68.59,31.67,68.59,70.59s-30.76,70.58-68.59,70.58ZM369.27,522.58c4.1,0,324.73.77,327,.77,27.72,0,50.29-24.13,50.29-53.33s-22.56-53.32-50.3-53.32h-57.14l.91-9.62c.31-3.24.58-5.57.8-7.46.33-2.88.55-4.61.56-7.49.13-41.77-29.4-78.39-70.21-87.07-23.26-4.94-45.99-2.12-65.72,8.14l-7.31,3.8-4.63-6.64c-24.72-35.49-64.16-57.33-108.19-59.94-7.42-.95-13-1.37-18.29-1.37-73.11,0-132.6,59.31-132.6,132.21,0,36.85,14.96,71.88,42.13,97.22,24.25,25.94,56.14,44.09,92.66,44.09h.04Z"/><path class="cls-1" d="M11.06,301.94c0,43.23,32.19,78.28,71.9,78.28,1.5,0,396.38-1.98,396.38-1.98,48.5-3.56,89.47-24.93,118.97-58.02,33.36-32.61,54.32-78.85,54.32-130.29,0-98.72-76.77-178.75-171.45-178.75-7.75,0-15.32.73-22.79,1.76-58.08,3.59-108.78,34.86-139.36,80.89-25.08-13.68-55.39-18.47-87.13-11.41-55.71,12.41-93.77,63.65-93.6,121.31.01,6.46.67,8.9,1.67,19.93,0,0-55.51,0-57,0-39.71,0-71.9,35.05-71.9,78.28Z"/><path class="cls-2" d="M0,301.95c0-49.33,37.21-89.46,82.96-89.46h44.71c-.29-2.9-.45-5.3-.46-8.71-.18-63.4,42.83-119.02,102.29-132.27,30.01-6.69,59.51-3.87,85.95,8.1C349.11,34.13,401.56,5.26,456.88,1.87,466.04.59,473.76,0,481.18,0c100.64,0,182.52,85.2,182.52,189.93,0,52.83-20.5,101.97-57.18,137.77-32.71,36.69-76.41,58.02-127.13,61.72-16.12.09-394.91,1.98-396.42,1.98-45.75,0-82.96-40.12-82.96-89.45ZM478.53,369.04c44.17,0,82.74-23,112.08-55.88,32.86-32.12,50.96-76.51,50.96-123.23,0-92.39-71.96-167.57-160.39-167.57-6.39,0-13.15.53-22.12,1.73-53.26,3.3-100.97,30.99-130.87,75.97l-5.6,8.42-8.84-4.82c-23.86-13.01-51.36-16.58-79.49-10.32-49.36,10.99-85.07,57.41-84.92,110.35.01,3.65.28,5.85.67,9.49.27,2.4.59,5.36.96,9.46l1.1,12.19h-69.11c-33.55,0-60.84,30.57-60.84,67.58,0,37,27.3,67.59,60.83,67.59,2.75,0,390.58-.97,395.54-.97h.04Z"/></svg>