<?xml version="1.0" encoding="UTF-8"?><svg id="Layer_1" xmlns="http://www.w3.org/2000/svg" viewBox="0 0 762 706.95"><defs><style>.cls-1{fill:#fdc567;}.cls-2{fill:#fcb641;}.cls-3{fill:#4d4d4d;}.cls-4{fill:#c3c7d3;}</style></defs><polygon class="cls-2" points="498.03 246.91 442.86 296.1 466.04 366.7 393.85 381.07 379 453.95 309.34 430.03 260.58 485.73 211.82 430.03 142.15 453.95 127.3 381.06 55.11 366.69 78.3 296.09 23.13 246.91 78.3 197.72 55.11 127.12 127.31 112.76 142.16 39.87 211.82 63.79 260.58 8.09 309.34 63.8 379 39.87 393.85 112.76 466.05 127.13 442.86 197.73 498.03 246.91"/><path class="cls-3" d="M260.58,493.95c-2.32,0-4.54-1.01-6.09-2.77l-45.18-51.61-64.55,22.16c-2.2.75-4.63.53-6.65-.65-2.02-1.18-3.45-3.16-3.92-5.47l-13.76-67.53-66.89-13.32c-2.29-.45-4.27-1.88-5.45-3.92s-1.43-4.49-.69-6.73l21.49-65.44-51.13-45.59c-1.75-1.55-2.75-3.81-2.75-6.16s1.01-4.61,2.75-6.16l51.13-45.59-21.49-65.44c-.73-2.24-.48-4.69.69-6.73s3.16-3.47,5.45-3.92l66.89-13.32,13.76-67.52c.47-2.31,1.89-4.3,3.92-5.47,2.02-1.18,4.45-1.41,6.65-.65l64.54,22.16L254.48,2.64c3.08-3.53,9.09-3.53,12.17,0l45.18,51.61,64.55-22.16c2.21-.76,4.62-.52,6.65.65s3.45,3.16,3.92,5.47l13.76,67.53,66.88,13.32c2.28.45,4.27,1.88,5.45,3.92,1.18,2.04,1.42,4.49.69,6.73l-21.49,65.44,51.14,45.59c1.79,1.55,2.79,3.81,2.79,6.16s-1,4.61-2.75,6.16l-51.14,45.59,21.49,65.44c.73,2.24.49,4.69-.69,6.73-1.19,2.04-3.17,3.47-5.45,3.92l-66.89,13.32-13.76,67.52c-.47,2.31-1.89,4.3-3.92,5.47s-4.45,1.41-6.65.65l-64.54-22.16-45.18,51.61c-1.56,1.76-3.78,2.77-6.1,2.77ZM211.82,421.81c2.28,0,4.52.98,6.09,2.77l42.68,48.75,42.68-48.75c2.18-2.47,5.6-3.4,8.7-2.33l60.94,20.93,12.99-63.76c.66-3.25,3.19-5.77,6.39-6.4l63.15-12.57-20.28-61.75c-1.02-3.12-.11-6.58,2.34-8.75l48.26-43.02-48.26-43.02c-2.45-2.18-3.36-5.63-2.34-8.75l20.28-61.75-63.14-12.57c-3.21-.64-5.73-3.16-6.39-6.4l-12.99-63.77-60.95,20.93c-3.1,1.08-6.53.15-8.7-2.33l-42.69-48.77-42.68,48.75c-2.16,2.48-5.6,3.42-8.7,2.33l-60.95-20.93-12.99,63.76c-.67,3.25-3.18,5.77-6.4,6.4l-63.14,12.57,20.28,61.75c1.02,3.12.11,6.58-2.34,8.75l-48.26,43.02,48.26,43.01c2.45,2.18,3.37,5.63,2.34,8.75l-20.28,61.75,63.14,12.57c3.22.64,5.73,3.16,6.4,6.4l12.99,63.77,60.95-20.93c.85-.27,1.74-.41,2.62-.41Z"/><ellipse class="cls-1" cx="260.58" cy="249.63" rx="135.75" ry="137.31"/><path class="cls-3" d="M260.58,395.16c-79.34,0-143.88-65.28-143.88-145.53s64.54-145.53,143.88-145.53,143.88,65.28,143.88,145.53-64.54,145.53-143.88,145.53ZM260.58,120.54c-70.38,0-127.63,57.91-127.63,129.09s57.26,129.09,127.63,129.09,127.63-57.91,127.63-129.09-57.25-129.09-127.63-129.09Z"/><path class="cls-4" d="M666.75,468.93h-65.44c1.14-15.65,1.91-19.1,1.92-28.28.19-81.81-43.51-154.52-107.47-172.13-36.45-10.03-71.25-3.22-100.04,16.19-35.12-65.31-93.32-109.68-160.01-114.77-8.57-1.46-17.26-2.49-26.16-2.49-108.71,0-196.85,113.55-196.85,253.63,0,72.99,24.07,138.6,62.37,184.88,33.87,46.95,80.9,77.28,136.59,82.32,0,0,453.36,2.81,455.09,2.81,45.59,0,82.55-49.73,82.55-111.07s-36.96-111.07-82.55-111.07Z"/><path class="cls-3" d="M666.75,706.95c-1.74,0-436.64-2.68-455.14-2.81-58.23-5.25-108.41-35.51-145.96-87.57C23.53,565.76,0,496.03,0,421.07,0,272.47,94.01,151.58,209.55,151.58c8.52,0,17.39.84,27.9,2.65,63.51,4.81,123.72,45.78,162.38,110.3,30.35-16.98,64.22-20.98,98.68-11.49,68.26,18.8,117.64,97.73,117.44,187.68-.01,4.84-.2,8.25-.53,12.36h51.33c52.53,0,95.25,56.95,95.25,126.94s-42.72,126.93-95.25,126.93ZM212.64,675.21c5.69,0,450.96,1.38,454.13,1.38,38.49,0,69.84-43.4,69.84-95.9s-31.33-95.89-69.85-95.89h-79.35l1.26-17.3c.43-5.82.8-10.01,1.1-13.42.46-5.17.76-8.3.77-13.47.18-75.12-40.83-140.98-97.5-156.58-32.3-8.89-63.87-3.81-91.26,14.65l-10.15,6.84-6.43-11.95c-34.33-63.82-89.1-103.11-150.25-107.79-10.3-1.71-18.06-2.46-25.4-2.46-101.54,0-184.15,106.66-184.15,237.76,0,66.28,20.78,129.27,58.51,174.85,33.68,46.65,77.97,79.29,128.68,79.29h.05Z"/></svg>