<?xml version="1.0" encoding="UTF-8"?><svg id="Layer_1" xmlns="http://www.w3.org/2000/svg" viewBox="0 0 793.39 800"><defs><style>.cls-1{fill:#92c7d3;}.cls-2{fill:#e4f1f4;}.cls-3{fill:#4d4d4d;}</style></defs><path class="cls-1" d="M694.21,264.46h-68.14c1.19-13.04,1.98-15.92,2-23.56.2-68.18-45.3-128.77-111.89-143.44-37.95-8.36-74.18-2.68-104.16,13.49-36.56-54.43-97.16-91.4-166.6-95.64-8.93-1.22-17.97-2.08-27.24-2.08C104.99,13.22,13.22,107.85,13.22,224.58c0,60.83,25.06,115.5,64.94,154.06,35.27,39.13,84.23,64.4,142.21,68.6,0,0,472.04,2.34,473.84,2.34,47.47,0,85.95-41.44,85.95-92.56s-38.48-92.56-85.95-92.56Z"/><path class="cls-3" d="M694.21,462.81c-1.81,0-454.62-2.23-473.89-2.34-60.63-4.38-112.87-29.59-151.97-72.98C24.5,345.15,0,287.05,0,224.58,0,100.75,97.88,0,218.18,0c8.87,0,18.1.7,29.05,2.21,66.13,4.01,128.82,38.15,169.07,91.91,31.6-14.15,66.87-17.48,102.74-9.57,71.07,15.67,122.49,81.44,122.27,156.4-.01,4.03-.21,6.88-.56,10.3h53.45c54.69,0,99.17,47.46,99.17,105.79s-44.48,105.77-99.17,105.77ZM221.4,436.36c5.92,0,469.54,1.15,472.83,1.15,40.08,0,72.71-36.17,72.71-79.92s-32.62-79.91-72.73-79.91h-82.62l1.31-14.41c.45-4.85.83-8.34,1.15-11.19.48-4.31.79-6.92.81-11.23.19-62.6-42.51-117.49-101.51-130.49-33.63-7.4-66.5-3.17-95.02,12.2l-10.57,5.7-6.69-9.96c-35.74-53.18-92.77-85.92-156.44-89.82-10.72-1.43-18.8-2.05-26.45-2.05C112.46,26.45,26.45,115.33,26.45,224.58c0,55.23,21.63,107.73,60.92,145.71,35.07,38.88,81.18,66.08,133.98,66.08h.05Z"/><circle class="cls-2" cx="132.23" cy="703.67" r="39.67"/><path class="cls-3" d="M132.23,756.56c-29.17,0-52.89-23.72-52.89-52.89s23.72-52.89,52.89-52.89,52.89,23.72,52.89,52.89-23.72,52.89-52.89,52.89ZM132.23,677.22c-14.59,0-26.45,11.86-26.45,26.45s11.86,26.45,26.45,26.45,26.45-11.86,26.45-26.45-11.86-26.45-26.45-26.45Z"/><circle class="cls-2" cx="707.44" cy="687.6" r="39.67"/><path class="cls-3" d="M707.44,740.5c-29.17,0-52.89-23.72-52.89-52.89s23.72-52.89,52.89-52.89,52.89,23.72,52.89,52.89-23.72,52.89-52.89,52.89ZM707.44,661.16c-14.59,0-26.45,11.86-26.45,26.45s11.86,26.45,26.45,26.45,26.45-11.86,26.45-26.45-11.86-26.45-26.45-26.45Z"/><circle class="cls-2" cx="332.17" cy="747.11" r="39.67"/><path class="cls-3" d="M332.23,800c-29.17,0-52.89-23.72-52.89-52.89s23.72-52.89,52.89-52.89,52.89,23.72,52.89,52.89-23.72,52.89-52.89,52.89ZM332.23,720.66c-14.59,0-26.45,11.86-26.45,26.45s11.86,26.45,26.45,26.45,26.45-11.86,26.45-26.45-11.86-26.45-26.45-26.45Z"/><circle class="cls-2" cx="451.17" cy="548.76" r="39.67"/><path class="cls-3" d="M451.24,601.65c-29.17,0-52.89-23.72-52.89-52.89s23.72-52.89,52.89-52.89,52.89,23.72,52.89,52.89-23.72,52.89-52.89,52.89ZM451.24,522.31c-14.59,0-26.45,11.86-26.45,26.45s11.86,26.45,26.45,26.45,26.45-11.86,26.45-26.45-11.86-26.45-26.45-26.45Z"/><circle class="cls-2" cx="268.08" cy="559.06" r="39.67"/><path class="cls-3" d="M260.73,611.44c-28.89-4.05-49.08-30.84-45.03-59.73s30.84-49.08,59.73-45.03c28.89,4.05,49.08,30.84,45.03,59.73s-30.84,49.08-59.73,45.03ZM271.75,532.87c-14.44-2.03-27.84,8.07-29.86,22.51s8.07,27.84,22.51,29.86c14.44,2.03,27.84-8.07,29.86-22.51s-8.07-27.84-22.51-29.86Z"/><circle class="cls-2" cx="85.12" cy="537" r="39.67"/><path class="cls-3" d="M77.77,589.38c-28.89-4.05-49.08-30.84-45.03-59.73s30.84-49.08,59.73-45.03c28.89,4.05,49.08,30.84,45.03,59.73s-30.84,49.08-59.73,45.03ZM88.79,510.81c-14.44-2.03-27.84,8.07-29.86,22.51-2.03,14.44,8.07,27.84,22.51,29.86,14.44,2.03,27.84-8.07,29.86-22.51,2.03-14.44-8.07-27.84-22.51-29.86Z"/><circle class="cls-2" cx="489.74" cy="703.66" r="39.67"/><path class="cls-3" d="M482.45,756.05c-28.89-4.05-49.08-30.84-45.03-59.73s30.84-49.08,59.73-45.03c28.89,4.05,49.08,30.84,45.03,59.73s-30.84,49.08-59.73,45.03ZM493.48,677.48c-14.44-2.03-27.84,8.07-29.86,22.51-2.03,14.44,8.07,27.84,22.51,29.86s27.84-8.07,29.86-22.51c2.03-14.44-8.07-27.84-22.51-29.86Z"/><circle class="cls-2" cx="635.15" cy="523.78" r="39.67"/><path class="cls-3" d="M627.87,576.16c-28.89-4.05-49.08-30.84-45.03-59.73s30.84-49.08,59.73-45.03,49.08,30.84,45.03,59.73c-4.05,28.89-30.84,49.08-59.73,45.03ZM638.89,497.6c-14.44-2.03-27.84,8.07-29.86,22.51-2.03,14.44,8.07,27.84,22.51,29.86,14.44,2.03,27.84-8.07,29.86-22.51,2.03-14.44-8.07-27.84-22.51-29.86Z"/></svg>