<?xml version="1.0" encoding="UTF-8"?><svg id="Layer_1" xmlns="http://www.w3.org/2000/svg" viewBox="0 0 747.84 748.46"><defs><style>.cls-1{fill:#92c7d3;}.cls-2{fill:#fdc567;}.cls-3{fill:#fcb641;}.cls-4{fill:#4d4d4d;}</style></defs><polygon class="cls-3" points="643.18 328.77 569.72 394.27 600.58 488.28 504.46 507.41 484.69 604.46 391.93 572.6 326.99 646.77 262.07 572.6 169.3 604.46 149.53 507.4 53.41 488.27 84.28 394.26 10.82 328.77 84.28 263.27 53.41 169.27 149.54 150.14 169.31 53.09 262.07 84.94 326.99 10.78 391.93 84.95 484.69 53.09 504.46 150.15 600.59 169.28 569.72 263.29 643.18 328.77"/><path class="cls-4" d="M326.99,657.72c-3.09,0-6.05-1.35-8.1-3.69l-60.16-68.72-85.95,29.51c-2.93,1-6.17.7-8.85-.86-2.69-1.57-4.59-4.21-5.22-7.29l-18.32-89.92-89.07-17.73c-3.05-.6-5.69-2.51-7.26-5.22s-1.9-5.98-.92-8.96l28.61-87.13L3.67,336.99c-2.33-2.07-3.67-5.07-3.67-8.21s1.34-6.14,3.67-8.21l68.08-60.71-28.61-87.14c-.97-2.98-.64-6.25.92-8.96s4.21-4.62,7.26-5.22l89.07-17.73,18.32-89.91c.63-3.08,2.52-5.72,5.22-7.29,2.69-1.58,5.92-1.88,8.85-.86l85.94,29.51L318.88,3.52c4.1-4.7,12.1-4.7,16.2,0l60.16,68.72,85.95-29.51c2.94-1.01,6.16-.69,8.85.86s4.6,4.21,5.22,7.29l18.32,89.92,89.06,17.73c3.04.6,5.68,2.51,7.26,5.22,1.57,2.71,1.89,5.98.92,8.96l-28.62,87.14,68.1,60.7c2.38,2.07,3.71,5.07,3.71,8.21s-1.33,6.14-3.67,8.21l-68.1,60.7,28.62,87.14c.97,2.98.65,6.25-.92,8.96-1.58,2.71-4.22,4.62-7.26,5.22l-89.07,17.73-18.32,89.91c-.63,3.08-2.52,5.72-5.22,7.29s-5.92,1.88-8.85.86l-85.94-29.51-60.16,68.72c-2.08,2.34-5.03,3.69-8.13,3.69ZM262.07,561.66c3.04,0,6.02,1.3,8.1,3.69l56.83,64.91,56.83-64.91c2.9-3.29,7.46-4.53,11.58-3.11l81.15,27.87,17.3-84.9c.88-4.32,4.24-7.68,8.51-8.53l84.09-16.73-27-82.22c-1.36-4.16-.14-8.76,3.12-11.66l64.25-57.29-64.25-57.29c-3.26-2.9-4.48-7.5-3.12-11.66l27-82.22-84.08-16.73c-4.27-.85-7.63-4.21-8.51-8.53l-17.3-84.91-81.16,27.87c-4.13,1.43-8.7.2-11.58-3.11l-56.84-64.94-56.83,64.91c-2.88,3.31-7.46,4.55-11.58,3.11l-81.16-27.87-17.3,84.9c-.89,4.32-4.23,7.68-8.52,8.53l-84.08,16.73,27,82.22c1.36,4.16.14,8.76-3.12,11.66l-64.25,57.29,64.25,57.27c3.26,2.9,4.49,7.5,3.12,11.66l-27,82.22,84.08,16.73c4.29.85,7.63,4.21,8.52,8.53l17.3,84.91,81.16-27.87c1.14-.36,2.32-.55,3.48-.55Z"/><ellipse class="cls-2" cx="326.99" cy="332.39" rx="180.76" ry="182.83"/><path class="cls-4" d="M326.99,526.17c-105.64,0-191.58-86.92-191.58-193.78s85.94-193.78,191.58-193.78,191.58,86.92,191.58,193.78-85.94,193.78-191.58,193.78ZM326.99,160.5c-93.71,0-169.94,77.11-169.94,171.89s76.24,171.89,169.94,171.89,169.94-77.11,169.94-171.89-76.23-171.89-169.94-171.89Z"/><path class="cls-1" d="M687.84,633.42h-41.22c.72-7.56,1.2-9.23,1.21-13.67.12-39.54-27.41-74.68-67.7-83.19-22.96-4.85-44.88-1.56-63.02,7.82-22.12-31.56-58.78-53.01-100.79-55.47-5.4-.71-10.87-1.2-16.48-1.2-68.48,0-124,54.88-124,122.58,0,35.28,15.16,66.99,39.29,89.35,21.34,22.69,50.96,37.35,86.04,39.79,0,0,285.59,1.36,286.68,1.36,28.72,0,52-24.03,52-53.68s-23.28-53.68-52-53.68Z"/><path class="cls-4" d="M687.84,748.46c-1.1,0-275.05-1.3-286.71-1.36-36.68-2.54-68.29-17.16-91.95-42.32-26.53-24.56-41.35-58.25-41.35-94.48,0-71.82,59.22-130.25,132-130.25,5.37,0,10.95.41,17.58,1.28,40.01,2.32,77.94,22.12,102.29,53.31,19.12-8.21,40.46-10.14,62.16-5.55,43,9.09,74.1,47.23,73.98,90.71,0,2.34-.13,3.99-.34,5.97h32.34c33.09,0,60,27.52,60,61.35s-26.91,61.34-60,61.34ZM401.78,733.12c3.58,0,284.08.67,286.07.67,24.25,0,43.99-20.97,43.99-46.35s-19.74-46.34-44-46.34h-49.98l.79-8.36c.27-2.81.5-4.84.7-6.49.29-2.5.48-4.01.49-6.51.11-36.3-25.72-68.14-61.42-75.67-20.34-4.29-40.23-1.84-57.49,7.08l-6.39,3.31-4.05-5.77c-21.62-30.84-56.13-49.83-94.65-52.09-6.49-.83-11.38-1.19-16-1.19-63.96,0-116,51.55-116,114.91,0,32.03,13.09,62.48,36.86,84.5,21.22,22.55,49.11,38.32,81.06,38.32h.03Z"/></svg>