<?xml version="1.0" encoding="UTF-8"?><svg id="Layer_1" xmlns="http://www.w3.org/2000/svg" viewBox="0 0 793.39 766.82"><defs><style>.cls-1{fill:#92c7d3;}.cls-2{fill:#e4f1f4;}.cls-3{fill:#4d4d4d;}</style></defs><path class="cls-1" d="M694.21,264.46h-68.14c1.19-13.04,1.98-15.92,2-23.56.2-68.18-45.3-128.77-111.89-143.44-37.95-8.36-74.18-2.68-104.16,13.49-36.56-54.43-97.16-91.4-166.6-95.64-8.93-1.22-17.97-2.08-27.24-2.08C104.99,13.22,13.22,107.85,13.22,224.58c0,60.83,25.06,115.5,64.94,154.06,35.27,39.13,84.23,64.4,142.21,68.6,0,0,472.04,2.34,473.84,2.34,47.47,0,85.95-41.44,85.95-92.56s-38.48-92.56-85.95-92.56Z"/><path class="cls-3" d="M694.21,462.81c-1.81,0-454.62-2.23-473.89-2.34-60.63-4.38-112.87-29.59-151.97-72.98C24.5,345.15,0,287.05,0,224.58,0,100.75,97.88,0,218.18,0c8.87,0,18.1.7,29.05,2.21,66.13,4.01,128.82,38.15,169.07,91.91,31.6-14.15,66.87-17.48,102.74-9.57,71.07,15.67,122.49,81.44,122.27,156.4-.01,4.03-.21,6.88-.56,10.3h53.45c54.69,0,99.17,47.46,99.17,105.79s-44.48,105.77-99.17,105.77ZM221.4,436.36c5.92,0,469.54,1.15,472.83,1.15,40.08,0,72.71-36.17,72.71-79.92s-32.62-79.91-72.73-79.91h-82.62l1.31-14.41c.45-4.85.83-8.34,1.15-11.19.48-4.31.79-6.92.81-11.23.19-62.6-42.51-117.49-101.51-130.49-33.63-7.4-66.5-3.17-95.02,12.2l-10.57,5.7-6.69-9.96c-35.74-53.18-92.77-85.92-156.44-89.82-10.72-1.43-18.8-2.05-26.45-2.05C112.46,26.45,26.45,115.33,26.45,224.58c0,55.23,21.63,107.73,60.92,145.71,35.07,38.88,81.18,66.08,133.98,66.08h.05Z"/><ellipse class="cls-2" cx="266.93" cy="715.61" rx="15.23" ry="39.67" transform="translate(-184.18 99.29) rotate(-15.75)"/><path class="cls-3" d="M281.28,766.52c-10.78,3.04-25.98-17.32-33.89-45.4-7.92-28.08-5.59-53.38,5.19-56.42s25.98,17.32,33.89,45.4c7.92,28.08,5.59,53.38-5.19,56.42ZM259.75,690.16c-5.39,1.52-6.55,14.17-2.59,28.21s11.56,24.22,16.95,22.7,6.55-14.17,2.59-28.21c-3.96-14.04-11.56-24.22-16.95-22.7Z"/><ellipse class="cls-2" cx="663.06" cy="554.29" rx="15.23" ry="39.67" transform="translate(-125.54 200.74) rotate(-15.75)"/><path class="cls-3" d="M677.42,605.2c-10.78,3.04-25.98-17.32-33.89-45.4-7.92-28.08-5.59-53.38,5.19-56.42s25.98,17.32,33.89,45.4c7.92,28.08,5.59,53.38-5.19,56.42ZM655.89,528.84c-5.39,1.52-6.55,14.17-2.59,28.21s11.56,24.22,16.95,22.7c5.39-1.52,6.55-14.17,2.59-28.21-3.96-14.04-11.56-24.22-16.95-22.7Z"/><ellipse class="cls-2" cx="429.58" cy="711.19" rx="15.23" ry="39.67" transform="translate(-176.88 143.26) rotate(-15.75)"/><path class="cls-3" d="M443.95,762.09c-10.78,3.04-25.98-17.32-33.89-45.4-7.92-28.08-5.59-53.38,5.19-56.42s25.98,17.32,33.89,45.4c7.92,28.08,5.59,53.38-5.19,56.42ZM422.42,685.73c-5.39,1.52-6.55,14.17-2.59,28.21s11.56,24.22,16.95,22.7c5.39-1.52,6.55-14.17,2.59-28.21-3.96-14.04-11.56-24.22-16.95-22.7Z"/><ellipse class="cls-2" cx="503.71" cy="554.3" rx="15.23" ry="39.67" transform="translate(-131.52 157.5) rotate(-15.75)"/><path class="cls-3" d="M518.09,605.2c-10.78,3.04-25.98-17.32-33.89-45.4-7.92-28.08-5.59-53.38,5.19-56.42,10.78-3.04,25.98,17.32,33.89,45.4,7.92,28.08,5.59,53.38-5.19,56.42ZM496.56,528.84c-5.39,1.52-6.55,14.17-2.59,28.21s11.56,24.22,16.95,22.7,6.55-14.17,2.59-28.21c-3.96-14.04-11.56-24.22-16.95-22.7Z"/><path class="cls-2" d="M335.03,515.91c8.84.67,19.87,18.4,24.63,39.6,4.76,21.2,1.46,37.84-7.38,37.17-8.84-.67-19.87-18.4-24.63-39.6-4.76-21.2-1.46-37.84,7.38-37.17Z"/><path class="cls-3" d="M355.15,605.48c-11.77-.89-26.5-24.57-32.84-52.8-6.34-28.23-1.93-50.45,9.85-49.56,11.77.89,26.5,24.57,32.84,52.8s1.93,50.45-9.85,49.56ZM337.9,528.71c-5.89-.45-8.09,10.67-4.92,24.78,3.17,14.11,10.54,25.95,16.42,26.4s8.09-10.67,4.92-24.78c-3.17-14.11-10.54-25.95-16.42-26.4Z"/><path class="cls-2" d="M195.66,521.72c8.84.67,19.87,18.4,24.63,39.6,4.76,21.2,1.46,37.84-7.38,37.17s-19.87-18.4-24.63-39.6-1.46-37.84,7.38-37.17Z"/><path class="cls-3" d="M215.79,611.28c-11.77-.89-26.5-24.57-32.84-52.8-6.34-28.23-1.93-50.45,9.85-49.56,11.77.89,26.5,24.57,32.84,52.8,6.34,28.23,1.93,50.45-9.85,49.56ZM198.54,534.51c-5.89-.45-8.09,10.67-4.92,24.78s10.54,25.95,16.42,26.4c5.89.45,8.09-10.67,4.92-24.78-3.17-14.11-10.54-25.95-16.42-26.4Z"/><path class="cls-2" d="M572.37,659.99c8.84.67,19.87,18.4,24.63,39.6s1.46,37.84-7.38,37.17c-8.84-.67-19.87-18.4-24.63-39.6-4.76-21.2-1.46-37.84,7.38-37.17Z"/><path class="cls-3" d="M592.52,749.56c-11.77-.89-26.5-24.57-32.84-52.8-6.34-28.23-1.93-50.45,9.85-49.56,11.77.89,26.5,24.57,32.84,52.8,6.34,28.23,1.93,50.45-9.85,49.56ZM575.27,672.79c-5.89-.45-8.09,10.67-4.92,24.78s10.54,25.95,16.42,26.4,8.09-10.67,4.92-24.78-10.54-25.95-16.42-26.4Z"/><path class="cls-2" d="M714.28,659.99c8.84.67,19.87,18.4,24.63,39.6,4.76,21.2,1.46,37.84-7.38,37.17-8.84-.67-19.87-18.4-24.63-39.6s-1.46-37.84,7.38-37.17Z"/><path class="cls-3" d="M734.43,749.56c-11.77-.89-26.5-24.57-32.84-52.8-6.34-28.23-1.93-50.45,9.85-49.56s26.5,24.57,32.84,52.8c6.34,28.23,1.93,50.45-9.85,49.56ZM717.18,672.79c-5.89-.45-8.09,10.67-4.92,24.78s10.54,25.95,16.42,26.4c5.89.45,8.09-10.67,4.92-24.78-3.17-14.11-10.54-25.95-16.42-26.4Z"/></svg>